<svg viewBox="0 0 17 17" fill="none" xmlns="http://www.w3.org/2000/svg">
<path
        d="M7.91467 1.54095C8.20467 1.50095 8.38767 1.50695 8.52767 1.53495C8.70071 1.57496 8.86526 1.64539 9.01367 1.74295C9.09814 1.7948 9.19205 1.82939 9.28997 1.84473C9.38789 1.86007 9.48788 1.85584 9.58416 1.8323C9.68044 1.80876 9.7711 1.76637 9.8509 1.70758C9.93069 1.64879 9.99805 1.57476 10.0491 1.48978C10.1001 1.4048 10.1337 1.31055 10.1481 1.21249C10.1625 1.11442 10.1573 1.01447 10.1328 0.918432C10.1083 0.82239 10.065 0.732155 10.0054 0.652944C9.94584 0.573733 9.87115 0.507116 9.78567 0.456945C9.48984 0.270693 9.16353 0.138 8.82167 0.0649453C8.46267 -0.0070547 8.09767 -5.46724e-05 7.69367 0.0579453L7.67567 0.0599452C6.87567 0.193945 6.24867 0.606945 5.82067 1.22195C5.40767 1.81795 5.20767 2.56195 5.15067 3.34695C5.14971 3.36459 5.14938 3.38227 5.14967 3.39995V3.40795L5.14867 3.43195L5.14567 3.51495L5.13267 3.78495C5.12267 4.00695 5.10567 4.30494 5.08667 4.65695L5.08167 4.74995H3.79967C3.60076 4.74995 3.40999 4.82896 3.26934 4.96961C3.12869 5.11027 3.04967 5.30103 3.04967 5.49995C3.04967 5.69886 3.12869 5.88962 3.26934 6.03027C3.40999 6.17093 3.60076 6.24995 3.79967 6.24995H4.99467L4.93767 7.21795C4.85019 8.72579 4.75452 10.2331 4.65067 11.7399C4.54367 13.0239 4.43067 13.8779 3.62367 14.3499C3.22067 14.5789 2.60467 14.5649 1.93367 14.2299C1.75745 14.1525 1.5582 14.1457 1.37714 14.2111C1.19609 14.2765 1.0471 14.4089 0.961016 14.5811C0.874931 14.7533 0.85834 14.952 0.914677 15.136C0.971014 15.3201 1.09597 15.4755 1.26367 15.5699C2.19067 16.0349 3.37367 16.2209 4.37067 15.6509L4.37667 15.6479C5.90967 14.7529 6.04467 13.0979 6.13667 11.9819L6.14667 11.8619V11.8569C6.20567 11.0889 6.37167 8.39694 6.49667 6.24995H8.29967C8.49858 6.24995 8.68935 6.17093 8.83 6.03027C8.97065 5.88962 9.04967 5.69886 9.04967 5.49995C9.04967 5.30103 8.97065 5.11027 8.83 4.96961C8.68935 4.82896 8.49858 4.74995 8.29967 4.74995H6.58367C6.62067 4.08195 6.64567 3.59395 6.64867 3.43395C6.69467 2.82795 6.84367 2.37895 7.05267 2.07795C7.24967 1.79495 7.51967 1.60795 7.91467 1.54095ZM15.7797 8.28095C15.8513 8.21179 15.9085 8.12906 15.9479 8.03758C15.9872 7.94609 16.0079 7.84769 16.0089 7.7481C16.0098 7.64852 15.9908 7.54975 15.9532 7.45756C15.9155 7.36537 15.8599 7.28161 15.7895 7.21116C15.7191 7.1407 15.6354 7.08497 15.5432 7.04722C15.4511 7.00947 15.3523 6.99044 15.2527 6.99126C15.1531 6.99208 15.0547 7.01272 14.9632 7.05199C14.8717 7.09125 14.7889 7.14835 14.7197 7.21995L12.1407 9.79795C11.8777 9.3521 11.6243 8.90066 11.3807 8.44395L11.3077 8.32795C11.1547 8.08295 10.9267 7.71695 10.6497 7.46095C10.4443 7.26388 10.1903 7.12482 9.91367 7.05794C9.59205 6.98894 9.2568 7.02433 8.95667 7.15895C8.90731 7.18019 8.86037 7.20667 8.81667 7.23795L8.78367 7.25995C8.68157 7.32767 8.58673 7.40575 8.50067 7.49295C8.45567 7.53995 8.41067 7.59295 8.36867 7.64195L8.34667 7.66795L8.18267 7.85794C8.05232 8.00832 7.98704 8.20432 8.0012 8.40283C8.01536 8.60134 8.10779 8.78609 8.25817 8.91645C8.40855 9.0468 8.60455 9.11208 8.80306 9.09792C9.00156 9.08376 9.18632 8.99132 9.31667 8.84095L9.48967 8.63895L9.51067 8.61395C9.55267 8.56395 9.56867 8.54595 9.57767 8.53695L9.58967 8.52795C9.59967 8.53395 9.61267 8.54495 9.63067 8.56195C9.68767 8.61395 9.75567 8.69695 9.84267 8.82495C9.90037 8.91016 9.95638 8.99651 10.0107 9.08395L10.0987 9.22395C10.2197 9.45895 10.5887 10.1209 11.0447 10.8939L8.21967 13.7199C8.14598 13.7886 8.08688 13.8714 8.04589 13.9634C8.0049 14.0554 7.98286 14.1547 7.98108 14.2554C7.9793 14.3561 7.99783 14.4562 8.03555 14.5495C8.07327 14.6429 8.12941 14.7278 8.20063 14.799C8.27185 14.8702 8.35668 14.9263 8.45007 14.9641C8.54346 15.0018 8.64349 15.0203 8.74419 15.0185C8.8449 15.0168 8.94421 14.9947 9.03621 14.9537C9.12821 14.9127 9.21101 14.8536 9.27967 14.7799L11.9417 12.1189C12.2241 12.5967 12.4961 13.0805 12.7577 13.5699L12.8077 13.6569C12.9377 13.8779 13.1577 14.2539 13.4477 14.5289C13.6277 14.6999 13.8697 14.8689 14.1807 14.9509C14.5334 15.0394 14.9057 15.0056 15.2367 14.8549C15.5927 14.6769 15.8127 14.4469 16.0407 14.0759C16.1445 13.9062 16.1767 13.7022 16.1301 13.5087C16.0834 13.3153 15.9619 13.1483 15.7922 13.0444C15.6224 12.9406 15.4184 12.9085 15.225 12.9551C15.0315 13.0017 14.8645 13.1232 14.7607 13.2929C14.7255 13.3562 14.6832 13.4153 14.6347 13.4689C14.6252 13.4787 14.6144 13.4871 14.6027 13.4939C14.5919 13.4969 14.5808 13.4989 14.5697 13.4999H14.5627C14.5627 13.4999 14.5557 13.4979 14.5427 13.4899C14.52 13.4755 14.4989 13.4588 14.4797 13.4399C14.4026 13.3621 14.3345 13.2759 14.2767 13.1829C14.2218 13.0983 14.1692 13.0123 14.1187 12.9249L14.0587 12.8219C13.7318 12.2148 13.3913 11.6149 13.0377 11.0229L15.7797 8.27995V8.28095ZM9.59767 8.52295H9.59967H9.59767Z"
        fill="currentColor"/>
</svg>
