<svg xmlns="http://www.w3.org/2000/svg" viewBox="0 0 536.39 96.82"><defs><style>.cls-1{fill:#122744;}.cls-2{fill:#0ca895;}</style></defs><g id="Layer_2" data-name="Layer 2"><g id="Layer_1-2" data-name="Layer 1"><path class="cls-1" d="M99,0h14.37l28.25,38.73c5.6,7.67,12.06,18.63,12.06,18.63V0h14.13V78.92H153.16L126.25,42.14C119.43,32.76,113.09,22,113.09,22V78.92H99Z"/><path class="cls-1" d="M174.83,48.84a31,31,0,0,1,31.06-31.42c16.07,0,29,14,29,30.93a45.48,45.48,0,0,1-.36,5.24H188.84c1.95,9.62,9.74,14.61,18.75,14.61A30.79,30.79,0,0,0,224.89,63l5.36,10a41.06,41.06,0,0,1-22.9,7.18C190.18,80.13,174.83,68.69,174.83,48.84Zm46.89-5.24a16.54,16.54,0,0,0-16.56-14.37c-7.8,0-14.62,5.72-16.44,14.37Z"/><path class="cls-1" d="M241.57,18.63h12.91v7.55c4.87-5.6,12.3-8.76,20.7-8.76,16.56,0,27.89,14,27.89,31.29s-11.33,31.42-27.89,31.42a25.94,25.94,0,0,1-20.1-8.89V96.33H241.57Zm47.74,30.08c0-10.59-7.31-18.26-17.54-18.26-9.5,0-16.69,7.55-16.69,18.26s7.07,18.39,16.69,18.39C282,67.1,289.31,59.31,289.31,48.71Z"/><path class="cls-1" d="M311.1,59.55V6.82L324.62,4V18.63h18.14V29.72H324.62v30.2c0,6.45,3,8.52,6.45,8.52a16.81,16.81,0,0,0,8.77-2.92l4,10.11a26.07,26.07,0,0,1-14.49,4.5C317.07,80.13,311.1,73.44,311.1,59.55Z"/><path class="cls-1" d="M359.2,84.15c7.19,0,10.23-2.55,13.28-8.64l1.21-2.44L347.63,18.63h13.89L376,50.78c1.83,4,3.9,9.5,3.9,9.5s2.68-7.06,3.89-10.1l13-31.55h13.64L383,81.6c-6.21,14-16.68,15.22-23.75,15.22Z"/><path class="cls-1" d="M415.83,18.63h13.52v8.65c4.5-6.7,11.44-9.86,19.48-9.86,16.32,0,21.68,10.83,21.68,26.91V78.92H457V46c0-9.86-2.19-15.58-12.3-15.58-8.89,0-15.34,6.94-15.34,16.92V78.92H415.83Z"/><path class="cls-1" d="M476.35,48.84c0-17.3,13.52-31.42,31-31.42,16.08,0,29,14,29,30.93a44.28,44.28,0,0,1-.37,5.24H490.35c1.95,9.62,9.75,14.61,18.76,14.61A30.75,30.75,0,0,0,526.4,63l5.36,10a41,41,0,0,1-22.89,7.18C491.69,80.13,476.35,68.69,476.35,48.84Zm46.89-5.24a16.54,16.54,0,0,0-16.57-14.37c-7.79,0-14.61,5.72-16.44,14.37Z"/><rect class="cls-2" x="59.7" y="59.04" width="19.9" height="19.9" transform="translate(0.66 138.63) rotate(-90)"/><rect class="cls-2" x="60.67" y="60.01" width="17.94" height="17.94" transform="translate(0.66 138.63) rotate(-90)"/><rect class="cls-2" x="29.85" y="59.04" width="19.9" height="19.9" transform="translate(-29.19 108.78) rotate(-90)"/><rect class="cls-2" x="30.82" y="60.01" width="17.94" height="17.94" transform="translate(-29.19 108.78) rotate(-90)"/><rect class="cls-2" y="59.04" width="19.9" height="19.89" transform="translate(-59.04 78.93) rotate(-90)"/><rect class="cls-2" x="0.98" y="60.01" width="17.94" height="17.94" transform="translate(-59.04 78.93) rotate(-90)"/><rect class="cls-2" x="29.85" y="29.52" width="19.9" height="19.9" transform="translate(0.33 79.26) rotate(-90)"/><rect class="cls-2" x="30.82" y="30.5" width="17.94" height="17.94" transform="translate(0.33 79.26) rotate(-90)"/><rect class="cls-2" y="29.52" width="19.9" height="19.89" transform="translate(-29.52 49.41) rotate(-90)"/><rect class="cls-2" x="0.98" y="30.5" width="17.94" height="17.94" transform="translate(-29.52 49.41) rotate(-90)"/><polygon class="cls-2" points="59.7 49.42 59.7 19.89 29.85 19.89 29.85 0.01 79.59 0.01 79.59 49.42 59.7 49.42"/><polygon class="cls-2" points="60.67 48.44 60.67 18.92 30.83 18.92 30.83 0.98 78.61 0.98 78.61 48.44 60.67 48.44"/><rect class="cls-2" width="19.9" height="19.89" transform="translate(0 19.9) rotate(-90)"/><rect class="cls-2" x="0.98" y="0.98" width="17.94" height="17.94" transform="translate(0 19.9) rotate(-90)"/></g></g></svg>