<?xml version="1.0" standalone="no"?>
<!DOCTYPE svg PUBLIC "-//W3C//DTD SVG 20010904//EN"
 "http://www.w3.org/TR/2001/REC-SVG-20010904/DTD/svg10.dtd">
<svg version="1.0" xmlns="http://www.w3.org/2000/svg"
 width="976.000000pt" height="976.000000pt" viewBox="0 0 976.000000 976.000000"
 preserveAspectRatio="xMidYMid meet">
<metadata>
Created by potrace 1.14, written by Peter Selinger 2001-2017
</metadata>
<g transform="translate(0.000000,976.000000) scale(0.100000,-0.100000)"
fill="#000000" stroke="none">
<path d="M40 9710 l-35 -5 1 -1210 c1 -665 2 -1212 3 -1215 2 -9 2419 -6 2427
3 4 4 8 552 8 1217 l1 1210 -35 0 c-253 4 -2344 4 -2370 0z"/>
<path d="M3683 9712 l-23 -3 0 -1217 0 -1217 1818 1 c999 0 1822 -1 1827 -3 7
-2 10 -610 10 -1808 l0 -1805 1217 0 1218 0 1 28 c4 169 0 6015 -4 6019 -6 5
-6025 10 -6064 5z"/>
<path d="M7 6091 c-2 -3 -3 -550 -3 -1216 l1 -1210 1218 -3 1217 -2 1 22 c1
30 1 2378 0 2399 -1 15 -105 16 -1216 16 -669 0 -1217 -2 -1218 -6z"/>
<path d="M3660 4879 l0 -1219 1219 0 1218 0 -1 1218 -1 1217 -1217 1 -1218 1
0 -1218z"/>
<path d="M6 2480 c-2 -5 0 -2400 3 -2423 1 -9 251 -12 1216 -12 1073 0 1215 2
1216 15 5 85 2 2405 -3 2413 -6 10 -2427 18 -2432 7z"/>
<path d="M3677 2482 c-16 -3 -17 -87 -15 -1220 l3 -1217 1215 0 1215 0 1 1218
c1 1118 0 1217 -15 1218 -52 3 -2390 3 -2404 1z"/>
<path d="M7321 2480 c-8 -6 -9 -2429 -1 -2431 3 -1 551 -2 1218 -3 l1212 -1 1
35 c0 43 0 2369 0 2390 -1 13 -142 15 -1212 15 -666 0 -1214 -2 -1218 -5z"/>
</g>
</svg>
