<svg id="Layer_1" data-name="Layer 1" xmlns="http://www.w3.org/2000/svg" viewBox="0 0 1300 900"><defs><style>.cls-1{fill:#0ca895;}.cls-2{fill:#fff;}</style></defs><rect class="cls-1" x="-37.21" y="-40.46" width="1374.42" height="980.91"/><path class="cls-2" d="M480.77,401.59h14.37l28.26,38.73C529,448,535.45,459,535.45,459V401.59h14.13v78.92H535l-26.92-36.78c-6.82-9.38-13.15-20.1-13.15-20.1v56.88H480.77Z"/><path class="cls-2" d="M556.64,450.43c0-17.3,13.52-31.42,31.05-31.42,16.08,0,29,14,29,30.93a44.28,44.28,0,0,1-.37,5.24H570.64c2,9.62,9.75,14.61,18.76,14.61a30.75,30.75,0,0,0,17.29-5.24l5.36,10a41,41,0,0,1-22.9,7.18C572,481.72,556.64,470.28,556.64,450.43Zm46.89-5.24A16.55,16.55,0,0,0,587,430.82c-7.79,0-14.61,5.72-16.44,14.37Z"/><path class="cls-2" d="M623.37,420.22h12.91v7.55c4.87-5.6,12.3-8.76,20.7-8.76,16.57,0,27.89,14,27.89,31.29S673.55,481.72,657,481.72a25.93,25.93,0,0,1-20.09-8.89v25.09H623.37Zm47.74,30.08c0-10.59-7.31-18.26-17.53-18.26-9.5,0-16.69,7.55-16.69,18.26s7.06,18.39,16.69,18.39C663.8,468.69,671.11,460.9,671.11,450.3Z"/><path class="cls-2" d="M692.91,461.14V408.41l13.51-2.8v14.61h18.15v11.09H706.42v30.2c0,6.45,3.05,8.52,6.46,8.52a16.81,16.81,0,0,0,8.77-2.92l4,10.11a26.06,26.06,0,0,1-14.5,4.5C698.87,481.72,692.91,475,692.91,461.14Z"/><path class="cls-2" d="M741,485.74c7.18,0,10.23-2.55,13.27-8.64l1.22-2.44-26.06-54.44h13.88l14.49,32.16c1.83,4,3.9,9.49,3.9,9.49s2.68-7.06,3.9-10.1l13-31.55h13.64l-27.52,63c-6.22,14-16.69,15.22-23.75,15.22Z"/><path class="cls-2" d="M797.63,420.22h13.52v8.65c4.51-6.7,11.45-9.86,19.49-9.86,16.32,0,21.67,10.83,21.67,26.91v34.59H838.8V447.63c0-9.87-2.2-15.59-12.3-15.59-8.89,0-15.35,6.94-15.35,16.92v31.55H797.63Z"/><path class="cls-2" d="M858.15,450.43A31,31,0,0,1,889.21,419c16.08,0,29,14,29,30.93a45.48,45.48,0,0,1-.36,5.24H872.16c2,9.62,9.74,14.61,18.75,14.61a30.79,30.79,0,0,0,17.3-5.24l5.36,10a41,41,0,0,1-22.9,7.18C873.5,481.72,858.15,470.28,858.15,450.43ZM905,445.19a16.54,16.54,0,0,0-16.56-14.37c-7.8,0-14.62,5.72-16.44,14.37Z"/><rect class="cls-2" x="441.5" y="460.63" width="19.9" height="19.9" transform="translate(-19.13 922.02) rotate(-90)"/><rect class="cls-2" x="442.48" y="461.6" width="17.94" height="17.94" transform="translate(-19.13 922.02) rotate(-90)"/><rect class="cls-2" x="411.65" y="460.63" width="19.9" height="19.9" transform="translate(-48.97 892.18) rotate(-90)"/><rect class="cls-2" x="412.63" y="461.6" width="17.94" height="17.94" transform="translate(-48.97 892.18) rotate(-90)"/><rect class="cls-2" x="381.81" y="460.63" width="19.9" height="19.89" transform="translate(-78.82 862.33) rotate(-90)"/><rect class="cls-2" x="382.78" y="461.6" width="17.94" height="17.94" transform="translate(-78.82 862.33) rotate(-90)"/><rect class="cls-2" x="411.65" y="431.11" width="19.9" height="19.9" transform="translate(-19.46 862.66) rotate(-90)"/><rect class="cls-2" x="412.63" y="432.09" width="17.94" height="17.94" transform="translate(-19.46 862.66) rotate(-90)"/><rect class="cls-2" x="381.8" y="431.11" width="19.9" height="19.89" transform="translate(-49.31 832.81) rotate(-90)"/><rect class="cls-2" x="382.78" y="432.09" width="17.94" height="17.94" transform="translate(-49.31 832.81) rotate(-90)"/><polygon class="cls-2" points="441.5 451.01 441.5 421.48 411.66 421.48 411.66 401.6 461.39 401.6 461.39 451.01 441.5 451.01"/><polygon class="cls-2" points="442.48 450.03 442.48 420.51 412.63 420.51 412.63 402.57 460.42 402.57 460.42 450.03 442.48 450.03"/><rect class="cls-2" x="381.81" y="401.59" width="19.9" height="19.89" transform="translate(-19.79 803.29) rotate(-90)"/><rect class="cls-2" x="382.78" y="402.57" width="17.94" height="17.94" transform="translate(-19.79 803.29) rotate(-90)"/></svg>