<svg xmlns="http://www.w3.org/2000/svg" viewBox="0 0 243.68 241.65">
    <defs>
        <style>.neptyne-logo-svg{fill:#b4b4b4;}</style>
    </defs>
    <g id="Layer_2" data-name="Layer 2">
        <g id="Layer_1-2" data-name="Layer 1">
            <rect class="neptyne-logo-svg" x="182.77" y="180.74" width="60.91" height="60.91" transform="translate(2.03 424.42) rotate(-90)" />
            <rect class="neptyne-logo-svg" x="185.75" y="183.72" width="54.94" height="54.94" transform="translate(2.03 424.42) rotate(-90)" />
            <rect class="neptyne-logo-svg" x="91.38" y="180.74" width="60.91" height="60.91" transform="translate(-89.36 333.03) rotate(-90)" />
            <rect class="neptyne-logo-svg" x="94.37" y="183.72" width="54.94" height="54.94" transform="translate(-89.35 333.03) rotate(-90)" />
            <rect class="neptyne-logo-svg" y="180.74" width="60.91" height="60.91" transform="translate(-180.74 241.65) rotate(-90)" />
            <rect class="neptyne-logo-svg" x="2.99" y="183.72" width="54.94" height="54.94" transform="translate(-180.74 241.65) rotate(-90)" />
            <rect class="neptyne-logo-svg" x="91.38" y="90.37" width="60.91" height="60.91" transform="translate(1.01 242.66) rotate(-90)" />
            <rect class="neptyne-logo-svg" x="94.37" y="93.35" width="54.94" height="54.94" transform="translate(1.01 242.66) rotate(-90)" />
            <rect class="neptyne-logo-svg" y="90.37" width="60.91" height="60.91" transform="translate(-90.37 151.28) rotate(-90)" />
            <rect class="neptyne-logo-svg" x="2.99" y="93.36" width="54.94" height="54.94" transform="translate(-90.37 151.28) rotate(-90)" />
            <polygon class="neptyne-logo-svg" points="182.78 151.29 182.78 60.9 91.4 60.9 91.4 0.01 243.66 0.01 243.66 151.29 182.78 151.29" />
            <polygon class="neptyne-logo-svg" points="185.76 148.3 185.76 57.91 94.38 57.91 94.38 3 240.68 3 240.68 148.3 185.76 148.3" />
            <rect class="neptyne-logo-svg" width="60.91" height="60.91" transform="translate(0 60.91) rotate(-90)" />
            <rect class="neptyne-logo-svg" x="2.99" y="2.99" width="54.94" height="54.94" transform="translate(0 60.91) rotate(-90)" />
        </g>
    </g>
</svg>
