<svg width="18" height="18" viewBox="0 0 18 18" fill="none" xmlns="http://www.w3.org/2000/svg">
    <mask id="8ysri2naaa" fill="#fff">
        <path fill-rule="evenodd" clip-rule="evenodd" d="M11.5 6a1 1 0 1 0 0-2 1 1 0 0 0 0 2zm-4 2a1 1 0 1 0 0-2 1 1 0 0 0 0 2z"/>
    </mask>
    <path fill-rule="evenodd" clip-rule="evenodd" d="M11.5 6a1 1 0 1 0 0-2 1 1 0 0 0 0 2zm-4 2a1 1 0 1 0 0-2 1 1 0 0 0 0 2z" fill="#535353"/>
    <path d="M11.5 5v2a2 2 0 0 0 2-2h-2zm0 0h2a2 2 0 0 0-2-2v2zm0 0V3a2 2 0 0 0-2 2h2zm0 0h-2a2 2 0 0 0 2 2V5zm-4 2v2a2 2 0 0 0 2-2h-2zm0 0h2a2 2 0 0 0-2-2v2zm0 0V5a2 2 0 0 0-2 2h2zm0 0h-2a2 2 0 0 0 2 2V7z" fill="#535353" mask="url(#8ysri2naaa)"/>
    <path d="M11 9a1 1 0 1 1-2 0 1 1 0 0 1 2 0z" fill="#535353"/>
    <path d="M5.5 10a.5.5 0 1 1-1 0 .5.5 0 0 1 1 0z" fill="#535353" stroke="#535353"/>
    <path d="M5 14h8.5a.5.5 0 0 0 .5-.5v-7" stroke="#535353" stroke-width="1.5" stroke-linecap="round"/>
</svg>
